<?xml version="1.0" encoding="UTF-8" standalone="no"?>
<!DOCTYPE svg PUBLIC "-//W3C//DTD SVG 1.1//EN"
 "http://www.w3.org/Graphics/SVG/1.1/DTD/svg11.dtd">
<!-- Generated by graphviz version 5.0.0 (20220707.1540)
 -->
<!-- Title: dependencies Pages: 1 -->
<svg width="164pt" height="174pt"
 viewBox="0.00 0.00 164.00 173.80" xmlns="http://www.w3.org/2000/svg" xmlns:xlink="http://www.w3.org/1999/xlink">
<g id="graph0" class="graph" transform="scale(1 1) rotate(0) translate(4 169.8)">
<title>dependencies</title>
<polygon fill="white" stroke="transparent" points="-4,4 -4,-169.8 160,-169.8 160,4 -4,4"/>
<text text-anchor="middle" x="78" y="-8.2" font-family="sans-serif" font-size="14.00">dependencies</text>
<g id="clust1" class="cluster">
<title>cluster_HomeComponent</title>
<polygon fill="none" stroke="black" stroke-dasharray="1,5" points="8,-32.8 8,-157.8 148,-157.8 148,-32.8 8,-32.8"/>
</g>
<g id="clust5" class="cluster">
<title>cluster_HomeComponent_bootstrap</title>
<polygon fill="none" stroke="black" points="16,-97.8 16,-149.8 140,-149.8 140,-97.8 16,-97.8"/>
</g>
<!-- AppComponent  -->
<g id="node1" class="node">
<title>AppComponent </title>
<polygon fill="#80b1d3" stroke="black" points="132.44,-141.8 23.56,-141.8 23.56,-105.8 132.44,-105.8 132.44,-141.8"/>
<text text-anchor="middle" x="78" y="-119.6" font-family="Times,serif" font-size="14.00">AppComponent </text>
</g>
<!-- HomeComponent -->
<g id="node2" class="node">
<title>HomeComponent</title>
<polygon fill="#8dd3c7" stroke="black" points="135.55,-76.8 132.55,-80.8 111.55,-80.8 108.55,-76.8 20.45,-76.8 20.45,-40.8 135.55,-40.8 135.55,-76.8"/>
<text text-anchor="middle" x="78" y="-54.6" font-family="Times,serif" font-size="14.00">HomeComponent</text>
</g>
<!-- HomeComponent&#45;&gt;AppComponent  -->
<g id="edge1" class="edge">
<title>HomeComponent&#45;&gt;AppComponent </title>
<path fill="none" stroke="black" stroke-dasharray="1,5" d="M78,-76.91C78,-76.91 78,-95.79 78,-95.79"/>
<polygon fill="black" stroke="black" points="74.5,-95.79 78,-105.79 81.5,-95.79 74.5,-95.79"/>
</g>
</g>
</svg>
