<?xml version="1.0" encoding="UTF-8" standalone="no"?>
<!DOCTYPE svg PUBLIC "-//W3C//DTD SVG 1.1//EN"
 "http://www.w3.org/Graphics/SVG/1.1/DTD/svg11.dtd">
<!-- Generated by graphviz version 5.0.0 (20220707.1540)
 -->
<!-- Title: dependencies Pages: 1 -->
<svg width="620pt" height="247pt"
 viewBox="0.00 0.00 620.00 246.80" xmlns="http://www.w3.org/2000/svg" xmlns:xlink="http://www.w3.org/1999/xlink">
<g id="graph0" class="graph" transform="scale(1 1) rotate(0) translate(4 242.8)">
<title>dependencies</title>
<polygon fill="white" stroke="transparent" points="-4,4 -4,-242.8 616,-242.8 616,4 -4,4"/>
<text text-anchor="middle" x="306" y="-8.2" font-family="sans-serif" font-size="14.00">dependencies</text>
<g id="clust1" class="cluster">
<title>cluster_AppModule</title>
<polygon fill="none" stroke="black" stroke-dasharray="1,5" points="8,-32.8 8,-230.8 604,-230.8 604,-32.8 8,-32.8"/>
</g>
<g id="clust2" class="cluster">
<title>cluster_AppModule_declarations</title>
<polygon fill="none" stroke="black" points="168,-40.8 168,-92.8 596,-92.8 596,-40.8 168,-40.8"/>
</g>
<g id="clust6" class="cluster">
<title>cluster_AppModule_imports</title>
<polygon fill="none" stroke="black" points="16,-40.8 16,-92.8 160,-92.8 160,-40.8 16,-40.8"/>
</g>
<g id="clust8" class="cluster">
<title>cluster_AppModule_bootstrap</title>
<polygon fill="none" stroke="black" points="248,-170.8 248,-222.8 372,-222.8 372,-170.8 248,-170.8"/>
</g>
<!-- AppComponent -->
<g id="node1" class="node">
<title>AppComponent</title>
<polygon fill="#ffffb3" stroke="black" points="587.94,-84.8 482.06,-84.8 482.06,-48.8 587.94,-48.8 587.94,-84.8"/>
<text text-anchor="middle" x="535" y="-62.6" font-family="Times,serif" font-size="14.00">AppComponent</text>
</g>
<!-- AppModule -->
<g id="node4" class="node">
<title>AppModule</title>
<polygon fill="#8dd3c7" stroke="black" points="351.66,-149.8 348.66,-153.8 327.66,-153.8 324.66,-149.8 268.34,-149.8 268.34,-113.8 351.66,-113.8 351.66,-149.8"/>
<text text-anchor="middle" x="310" y="-127.6" font-family="Times,serif" font-size="14.00">AppModule</text>
</g>
<!-- AppComponent&#45;&gt;AppModule -->
<g id="edge1" class="edge">
<title>AppComponent&#45;&gt;AppModule</title>
<path fill="none" stroke="black" d="M535,-84.91C535,-104.14 535,-131.8 535,-131.8 535,-131.8 361.79,-131.8 361.79,-131.8"/>
<polygon fill="black" stroke="black" points="361.79,-128.3 351.79,-131.8 361.79,-135.3 361.79,-128.3"/>
</g>
<!-- CryptoPricesComponent -->
<g id="node2" class="node">
<title>CryptoPricesComponent</title>
<polygon fill="#ffffb3" stroke="black" points="464.44,-84.8 309.56,-84.8 309.56,-48.8 464.44,-48.8 464.44,-84.8"/>
<text text-anchor="middle" x="387" y="-62.6" font-family="Times,serif" font-size="14.00">CryptoPricesComponent</text>
</g>
<!-- CryptoPricesComponent&#45;&gt;AppModule -->
<g id="edge2" class="edge">
<title>CryptoPricesComponent&#45;&gt;AppModule</title>
<path fill="none" stroke="black" d="M330.81,-84.91C330.81,-84.91 330.81,-103.79 330.81,-103.79"/>
<polygon fill="black" stroke="black" points="327.31,-103.79 330.81,-113.79 334.31,-103.79 327.31,-103.79"/>
</g>
<!-- HomeComponent -->
<g id="node3" class="node">
<title>HomeComponent</title>
<polygon fill="#ffffb3" stroke="black" points="291.55,-84.8 176.45,-84.8 176.45,-48.8 291.55,-48.8 291.55,-84.8"/>
<text text-anchor="middle" x="234" y="-62.6" font-family="Times,serif" font-size="14.00">HomeComponent</text>
</g>
<!-- HomeComponent&#45;&gt;AppModule -->
<g id="edge3" class="edge">
<title>HomeComponent&#45;&gt;AppModule</title>
<path fill="none" stroke="black" d="M279.97,-84.91C279.97,-84.91 279.97,-103.79 279.97,-103.79"/>
<polygon fill="black" stroke="black" points="276.47,-103.79 279.97,-113.79 283.47,-103.79 276.47,-103.79"/>
</g>
<!-- AppComponent  -->
<g id="node6" class="node">
<title>AppComponent </title>
<polygon fill="#80b1d3" stroke="black" points="364.44,-214.8 255.56,-214.8 255.56,-178.8 364.44,-178.8 364.44,-214.8"/>
<text text-anchor="middle" x="310" y="-192.6" font-family="Times,serif" font-size="14.00">AppComponent </text>
</g>
<!-- AppModule&#45;&gt;AppComponent  -->
<g id="edge5" class="edge">
<title>AppModule&#45;&gt;AppComponent </title>
<path fill="none" stroke="black" stroke-dasharray="1,5" d="M310,-149.91C310,-149.91 310,-168.79 310,-168.79"/>
<polygon fill="black" stroke="black" points="306.5,-168.79 310,-178.79 313.5,-168.79 306.5,-168.79"/>
</g>
<!-- AppRoutingModule -->
<g id="node5" class="node">
<title>AppRoutingModule</title>
<polygon fill="#8dd3c7" stroke="black" points="152.28,-84.8 149.28,-88.8 128.28,-88.8 125.28,-84.8 23.72,-84.8 23.72,-48.8 152.28,-48.8 152.28,-84.8"/>
<text text-anchor="middle" x="88" y="-62.6" font-family="Times,serif" font-size="14.00">AppRoutingModule</text>
</g>
<!-- AppRoutingModule&#45;&gt;AppModule -->
<g id="edge4" class="edge">
<title>AppRoutingModule&#45;&gt;AppModule</title>
<path fill="none" stroke="black" d="M88,-84.91C88,-104.14 88,-131.8 88,-131.8 88,-131.8 258.24,-131.8 258.24,-131.8"/>
<polygon fill="black" stroke="black" points="258.24,-135.3 268.24,-131.8 258.24,-128.3 258.24,-135.3"/>
</g>
</g>
</svg>
