<?xml version="1.0" encoding="UTF-8" standalone="no"?>
<!DOCTYPE svg PUBLIC "-//W3C//DTD SVG 1.1//EN"
 "http://www.w3.org/Graphics/SVG/1.1/DTD/svg11.dtd">
<!-- Generated by graphviz version 5.0.0 (20220707.1540)
 -->
<!-- Title: dependencies Pages: 1 -->
<svg width="619pt" height="247pt"
 viewBox="0.00 0.00 619.00 246.80" xmlns="http://www.w3.org/2000/svg" xmlns:xlink="http://www.w3.org/1999/xlink">
<g id="graph0" class="graph" transform="scale(1 1) rotate(0) translate(4 242.8)">
<title>dependencies</title>
<polygon fill="white" stroke="transparent" points="-4,4 -4,-242.8 615,-242.8 615,4 -4,4"/>
<text text-anchor="middle" x="305.5" y="-8.2" font-family="sans-serif" font-size="14.00">dependencies</text>
<g id="clust1" class="cluster">
<title>cluster_AppModule</title>
<polygon fill="none" stroke="black" stroke-dasharray="1,5" points="8,-32.8 8,-230.8 603,-230.8 603,-32.8 8,-32.8"/>
</g>
<g id="clust2" class="cluster">
<title>cluster_AppModule_declarations</title>
<polygon fill="none" stroke="black" points="168,-40.8 168,-92.8 595,-92.8 595,-40.8 168,-40.8"/>
</g>
<g id="clust6" class="cluster">
<title>cluster_AppModule_imports</title>
<polygon fill="none" stroke="black" points="16,-40.8 16,-92.8 160,-92.8 160,-40.8 16,-40.8"/>
</g>
<g id="clust8" class="cluster">
<title>cluster_AppModule_bootstrap</title>
<polygon fill="none" stroke="black" points="369,-170.8 369,-222.8 493,-222.8 493,-170.8 369,-170.8"/>
</g>
<!-- AppComponent -->
<g id="node1" class="node">
<title>AppComponent</title>
<polygon fill="#ffffb3" stroke="black" points="453.94,-84.8 348.06,-84.8 348.06,-48.8 453.94,-48.8 453.94,-84.8"/>
<text text-anchor="middle" x="401" y="-62.6" font-family="Times,serif" font-size="14.00">AppComponent</text>
</g>
<!-- AppModule -->
<g id="node4" class="node">
<title>AppModule</title>
<polygon fill="#8dd3c7" stroke="black" points="442.66,-149.8 439.66,-153.8 418.66,-153.8 415.66,-149.8 359.34,-149.8 359.34,-113.8 442.66,-113.8 442.66,-149.8"/>
<text text-anchor="middle" x="401" y="-127.6" font-family="Times,serif" font-size="14.00">AppModule</text>
</g>
<!-- AppComponent&#45;&gt;AppModule -->
<g id="edge1" class="edge">
<title>AppComponent&#45;&gt;AppModule</title>
<path fill="none" stroke="black" d="M401,-84.91C401,-84.91 401,-103.79 401,-103.79"/>
<polygon fill="black" stroke="black" points="397.5,-103.79 401,-113.79 404.5,-103.79 397.5,-103.79"/>
</g>
<!-- CryptoPricesComponent -->
<g id="node2" class="node">
<title>CryptoPricesComponent</title>
<polygon fill="#ffffb3" stroke="black" points="330.44,-84.8 175.56,-84.8 175.56,-48.8 330.44,-48.8 330.44,-84.8"/>
<text text-anchor="middle" x="253" y="-62.6" font-family="Times,serif" font-size="14.00">CryptoPricesComponent</text>
</g>
<!-- CryptoPricesComponent&#45;&gt;AppModule -->
<g id="edge2" class="edge">
<title>CryptoPricesComponent&#45;&gt;AppModule</title>
<path fill="none" stroke="black" d="M253,-84.82C253,-102.17 253,-125.8 253,-125.8 253,-125.8 348.99,-125.8 348.99,-125.8"/>
<polygon fill="black" stroke="black" points="348.99,-129.3 358.99,-125.8 348.98,-122.3 348.99,-129.3"/>
</g>
<!-- HomeComponent -->
<g id="node3" class="node">
<title>HomeComponent</title>
<polygon fill="#ffffb3" stroke="black" points="586.55,-84.8 471.45,-84.8 471.45,-48.8 586.55,-48.8 586.55,-84.8"/>
<text text-anchor="middle" x="529" y="-62.6" font-family="Times,serif" font-size="14.00">HomeComponent</text>
</g>
<!-- HomeComponent&#45;&gt;AppModule -->
<g id="edge3" class="edge">
<title>HomeComponent&#45;&gt;AppModule</title>
<path fill="none" stroke="black" d="M475.98,-84.91C475.98,-104.14 475.98,-131.8 475.98,-131.8 475.98,-131.8 452.87,-131.8 452.87,-131.8"/>
<polygon fill="black" stroke="black" points="452.87,-128.3 442.87,-131.8 452.87,-135.3 452.87,-128.3"/>
</g>
<!-- AppComponent  -->
<g id="node6" class="node">
<title>AppComponent </title>
<polygon fill="#80b1d3" stroke="black" points="485.44,-214.8 376.56,-214.8 376.56,-178.8 485.44,-178.8 485.44,-214.8"/>
<text text-anchor="middle" x="431" y="-192.6" font-family="Times,serif" font-size="14.00">AppComponent </text>
</g>
<!-- HomeComponent&#45;&gt;AppComponent  -->
<g id="edge6" class="edge">
<title>HomeComponent&#45;&gt;AppComponent </title>
<path fill="none" stroke="black" stroke-dasharray="1,5" d="M480.72,-84.88C480.72,-84.88 480.72,-168.46 480.72,-168.46"/>
<polygon fill="black" stroke="black" points="477.22,-168.46 480.72,-178.46 484.22,-168.46 477.22,-168.46"/>
</g>
<!-- AppModule&#45;&gt;AppComponent  -->
<g id="edge5" class="edge">
<title>AppModule&#45;&gt;AppComponent </title>
<path fill="none" stroke="black" stroke-dasharray="1,5" d="M409.68,-149.91C409.68,-149.91 409.68,-168.79 409.68,-168.79"/>
<polygon fill="black" stroke="black" points="406.18,-168.79 409.68,-178.79 413.18,-168.79 406.18,-168.79"/>
</g>
<!-- AppRoutingModule -->
<g id="node5" class="node">
<title>AppRoutingModule</title>
<polygon fill="#8dd3c7" stroke="black" points="152.28,-84.8 149.28,-88.8 128.28,-88.8 125.28,-84.8 23.72,-84.8 23.72,-48.8 152.28,-48.8 152.28,-84.8"/>
<text text-anchor="middle" x="88" y="-62.6" font-family="Times,serif" font-size="14.00">AppRoutingModule</text>
</g>
<!-- AppRoutingModule&#45;&gt;AppModule -->
<g id="edge4" class="edge">
<title>AppRoutingModule&#45;&gt;AppModule</title>
<path fill="none" stroke="black" d="M88,-85.08C88,-106.12 88,-137.8 88,-137.8 88,-137.8 349.11,-137.8 349.11,-137.8"/>
<polygon fill="black" stroke="black" points="349.11,-141.3 359.11,-137.8 349.11,-134.3 349.11,-141.3"/>
</g>
</g>
</svg>
